<svg class="diagram-root" style="background: #f5f6f6" xmlns="http://www.w3.org/2000/svg" xmlns:xlink="http://www.w3.org/1999/xlink"><style>.diagram-root { font-family: "Helvetica Neue", sans-serif; font-size: 12px; } .t { overflow: visible; } .t-bg { y: 40; fill: #fff;   } .th { fill: #005aa0;   } .tht { fill: #fff; font-size: 14px;  } .tf { fill: #323c46; overflow: visible; } .tf.pk { fill: #005aa0; font-weight: bold; } .tf.fk { font-weight: bold; } .ty { fill: #adb1b5; font-weight: normal; text-anchor: end; } .r { fill: transparent; stroke: #c3c3c3; stroke-width: 1; } .l { stroke: 1; } .i { fill: #c2c7ce; stroke: #c2c7ce; } .i.ix { fill: #afb3b6; stroke: #000; } .fa { fill: transparent; overflow: visible; } .fa .bg.hover { fill: #f7f7f7; } .c { cy: 12; r: 4; stroke: #d2d2dc; fill: #d2d2dc; } .hr { fill: transparent; stroke: #323c46; stroke-opacity: 0.035; stroke-width: 13; } .dc { stroke: #fa5a3c; fill: #fa5a3c; } .x { stroke: white; stroke-width: 1; } .hl .th { fill: #1b9bff; } .hl .tht {  } .fhl .bg { fill: #e7f4ff; } .fhls .bg {  } .r.hl { stroke: #1b9bff; } .dim { opacity: 0.25; }</style><g class="drawing-wrapper" transform="translate(-38, -6) scale(1,1)"><g class="rs"><path d="M 191 289 m -1, 0 a 1,1 0 1,0 2,0 a 1,1 0 1,0 -2,0 M 191 289 m -0.5, 0 a 0.5,0.5 0 1,0 1,0 a 0.5,0.5 0 1,0 -1,0  M191 289 L191 289 203 289 M 191 295 m -1, 0 a 1,1 0 1,0 2,0 a 1,1 0 1,0 -2,0 M 191 295 m -0.5, 0 a 0.5,0.5 0 1,0 1,0 a 0.5,0.5 0 1,0 -1,0  M191 295 L191 295 198 289 191 283 M 191 283 m -1, 0 a 1,1 0 1,0 2,0 a 1,1 0 1,0 -2,0 M 191 283 m -0.5, 0 a 0.5,0.5 0 1,0 1,0 a 0.5,0.5 0 1,0 -1,0  M203 289 Q 228.75 289, 254.5 191 T 306 93 M 318 93 m -1, 0 a 1,1 0 1,0 2,0 a 1,1 0 1,0 -2,0 M 318 93 m -0.5, 0 a 0.5,0.5 0 1,0 1,0 a 0.5,0.5 0 1,0 -1,0  M318 93 L318 93 306 93 M312 99 L312 99 312 87" id="h1882043173" class="r"></path><path d="M 591 184 m -1, 0 a 1,1 0 1,0 2,0 a 1,1 0 1,0 -2,0 M 591 184 m -0.5, 0 a 0.5,0.5 0 1,0 1,0 a 0.5,0.5 0 1,0 -1,0  M591 184 L591 184 579 184 M 591 190 m -1, 0 a 1,1 0 1,0 2,0 a 1,1 0 1,0 -2,0 M 591 190 m -0.5, 0 a 0.5,0.5 0 1,0 1,0 a 0.5,0.5 0 1,0 -1,0  M591 190 L591 190 584 184 591 178 M 591 178 m -1, 0 a 1,1 0 1,0 2,0 a 1,1 0 1,0 -2,0 M 591 178 m -0.5, 0 a 0.5,0.5 0 1,0 1,0 a 0.5,0.5 0 1,0 -1,0  M579 184 Q 554.5 184, 530 138.5 T 481 93 M 469 93 m -1, 0 a 1,1 0 1,0 2,0 a 1,1 0 1,0 -2,0 M 469 93 m -0.5, 0 a 0.5,0.5 0 1,0 1,0 a 0.5,0.5 0 1,0 -1,0  M469 93 L469 93 481 93 M475 99 L475 99 475 87" id="h1248694035" class="r"></path><path d="M 591 209 m -1, 0 a 1,1 0 1,0 2,0 a 1,1 0 1,0 -2,0 M 591 209 m -0.5, 0 a 0.5,0.5 0 1,0 1,0 a 0.5,0.5 0 1,0 -1,0  M591 209 L591 209 579 209 M585 215 L585 215 585 203 M579 209 Q 485 209, 391 236.5 T 203 264 M 191 264 m -1, 0 a 1,1 0 1,0 2,0 a 1,1 0 1,0 -2,0 M 191 264 m -0.5, 0 a 0.5,0.5 0 1,0 1,0 a 0.5,0.5 0 1,0 -1,0  M191 264 L191 264 203 264 M197 270 L197 270 197 258" id="h2275879806" class="r"></path><path d="M 550 410 m -1, 0 a 1,1 0 1,0 2,0 a 1,1 0 1,0 -2,0 M 550 410 m -0.5, 0 a 0.5,0.5 0 1,0 1,0 a 0.5,0.5 0 1,0 -1,0  M550 410 L550 410 538 410 M544 416 L544 416 544 404 M538 410 Q 454.25 410, 370.5 337 T 203 264 M 191 264 m -1, 0 a 1,1 0 1,0 2,0 a 1,1 0 1,0 -2,0 M 191 264 m -0.5, 0 a 0.5,0.5 0 1,0 1,0 a 0.5,0.5 0 1,0 -1,0  M191 264 L191 264 203 264 M197 270 L197 270 197 258" id="h1382146273" class="r"></path><path d="M 316 472 m -1, 0 a 1,1 0 1,0 2,0 a 1,1 0 1,0 -2,0 M 316 472 m -0.5, 0 a 0.5,0.5 0 1,0 1,0 a 0.5,0.5 0 1,0 -1,0  M316 472 L316 472 328 472 M322 478 L322 478 322 466 M328 472 Q 380.5 472, 433 441 T 538 410 M 550 410 m -1, 0 a 1,1 0 1,0 2,0 a 1,1 0 1,0 -2,0 M 550 410 m -0.5, 0 a 0.5,0.5 0 1,0 1,0 a 0.5,0.5 0 1,0 -1,0  M550 410 L550 410 538 410 M544 416 L544 416 544 404" id="h221257298" class="r"></path><path d="M 865 320 m -1, 0 a 1,1 0 1,0 2,0 a 1,1 0 1,0 -2,0 M 865 320 m -0.5, 0 a 0.5,0.5 0 1,0 1,0 a 0.5,0.5 0 1,0 -1,0  M865 320 L865 320 853 320 M859 326 L859 326 859 314 M853 320 Q 816.5 320, 780 365 T 707 410 M 695 410 m -1, 0 a 1,1 0 1,0 2,0 a 1,1 0 1,0 -2,0 M 695 410 m -0.5, 0 a 0.5,0.5 0 1,0 1,0 a 0.5,0.5 0 1,0 -1,0  M695 410 L695 410 707 410 M701 416 L701 416 701 404" id="h1168633520" class="r"></path></g><g class="hrs"></g><g class="ts"><svg width="151" height="100" x="318" y="36" id="h3708248841" class="t"><rect height="40" width="151" class="th"></rect><text x="13" y="25" class="tht">Departments</text><rect height="60" width="151" class="t-bg" y="40"></rect><text x="13" y="61" class="tf pk">dept_no<tspan x="138" class="ty">varchar</tspan></text><path d="M7,14A2,2 0 0,1 5,12A2,2 0 0,1 7,10A2,2 0 0,1 9,12A2,2 0 0,1 7,14M12.65,10C11.83,7.67 9.61,6 7, 6A6, 6 0 0, 0 1, 12A6, 6 0 0, 0 7, 18C9.61, 18 11.83, 16.33 12.65, 14H17V18H21V14H23V10H12.65Z" class="i pk" transform="translate(78, 48) scale(0.65)"></path><text x="13" y="86" class="tf">dept_name<tspan x="138" class="ty">varchar</tspan></text></svg><svg width="131" height="150" x="60" y="207" id="h3353995054" class="t"><rect height="40" width="131" class="th"></rect><text x="13" y="25" class="tht">Dept_Emp</text><rect height="110" width="131" class="t-bg" y="40"></rect><text x="13" y="61" class="tf pk">emp_no<tspan x="118" class="ty">int</tspan></text><path d="M7,14A2,2 0 0,1 5,12A2,2 0 0,1 7,10A2,2 0 0,1 9,12A2,2 0 0,1 7,14M12.65,10C11.83,7.67 9.61,6 7, 6A6, 6 0 0, 0 1, 12A6, 6 0 0, 0 7, 18C9.61, 18 11.83, 16.33 12.65, 14H17V18H21V14H23V10H12.65Z" class="i pk" transform="translate(85, 48) scale(0.65)"></path><text x="13" y="86" class="tf fk">dept_no<tspan x="118" class="ty">varchar</tspan></text><text x="13" y="111" class="tf">from_date<tspan x="118" class="ty">date</tspan></text><text x="13" y="136" class="tf">to_date<tspan x="118" class="ty">date</tspan></text></svg><svg width="131" height="150" x="591" y="127" id="h754932316" class="t"><rect height="40" width="131" class="th"></rect><text x="13" y="25" class="tht">Dept_Manager</text><rect height="110" width="131" class="t-bg" y="40"></rect><text x="13" y="61" class="tf fk">dept_no<tspan x="118" class="ty">varchar</tspan></text><text x="13" y="86" class="tf pk">emp_no<tspan x="118" class="ty">int</tspan></text><path d="M7,14A2,2 0 0,1 5,12A2,2 0 0,1 7,10A2,2 0 0,1 9,12A2,2 0 0,1 7,14M12.65,10C11.83,7.67 9.61,6 7, 6A6, 6 0 0, 0 1, 12A6, 6 0 0, 0 7, 18C9.61, 18 11.83, 16.33 12.65, 14H17V18H21V14H23V10H12.65Z" class="i pk" transform="translate(85, 73) scale(0.65)"></path><text x="13" y="111" class="tf">from_date<tspan x="118" class="ty">date</tspan></text><text x="13" y="136" class="tf">to_date<tspan x="118" class="ty">date</tspan></text></svg><svg width="126" height="150" x="190" y="415" id="h3858243705" class="t"><rect height="40" width="126" class="th"></rect><text x="13" y="25" class="tht">Salaries</text><rect height="110" width="126" class="t-bg" y="40"></rect><text x="13" y="61" class="tf pk">emp_no<tspan x="113" class="ty">int</tspan></text><path d="M7,14A2,2 0 0,1 5,12A2,2 0 0,1 7,10A2,2 0 0,1 9,12A2,2 0 0,1 7,14M12.65,10C11.83,7.67 9.61,6 7, 6A6, 6 0 0, 0 1, 12A6, 6 0 0, 0 7, 18C9.61, 18 11.83, 16.33 12.65, 14H17V18H21V14H23V10H12.65Z" class="i pk" transform="translate(80, 48) scale(0.65)"></path><text x="13" y="86" class="tf">salary<tspan x="113" class="ty">int</tspan></text><text x="13" y="111" class="tf">from_date<tspan x="113" class="ty">date</tspan></text><text x="13" y="136" class="tf">to_date<tspan x="113" class="ty">date</tspan></text></svg><svg width="126" height="150" x="865" y="263" id="h3517680912" class="t"><rect height="40" width="126" class="th"></rect><text x="13" y="25" class="tht">Titles</text><rect height="110" width="126" class="t-bg" y="40"></rect><text x="13" y="61" class="tf pk">emp_no<tspan x="113" class="ty">int</tspan></text><path d="M7,14A2,2 0 0,1 5,12A2,2 0 0,1 7,10A2,2 0 0,1 9,12A2,2 0 0,1 7,14M12.65,10C11.83,7.67 9.61,6 7, 6A6, 6 0 0, 0 1, 12A6, 6 0 0, 0 7, 18C9.61, 18 11.83, 16.33 12.65, 14H17V18H21V14H23V10H12.65Z" class="i pk" transform="translate(80, 48) scale(0.65)"></path><text x="13" y="86" class="tf">title<tspan x="113" class="ty">varchar</tspan></text><text x="13" y="111" class="tf">from_date<tspan x="113" class="ty">date</tspan></text><text x="13" y="136" class="tf">to_date<tspan x="113" class="ty">date</tspan></text></svg><svg width="145" height="200" x="550" y="353" id="h3299212598" class="t"><rect height="40" width="145" class="th"></rect><text x="13" y="25" class="tht">Employees</text><rect height="160" width="145" class="t-bg" y="40"></rect><text x="13" y="61" class="tf pk">emp_no<tspan x="132" class="ty">int</tspan></text><path d="M7,14A2,2 0 0,1 5,12A2,2 0 0,1 7,10A2,2 0 0,1 9,12A2,2 0 0,1 7,14M12.65,10C11.83,7.67 9.61,6 7, 6A6, 6 0 0, 0 1, 12A6, 6 0 0, 0 7, 18C9.61, 18 11.83, 16.33 12.65, 14H17V18H21V14H23V10H12.65Z" class="i pk" transform="translate(99, 48) scale(0.65)"></path><text x="13" y="86" class="tf">birth_date<tspan x="132" class="ty">date</tspan></text><text x="13" y="111" class="tf">first_name<tspan x="132" class="ty">varchar</tspan></text><text x="13" y="136" class="tf">last_name<tspan x="132" class="ty">varchar</tspan></text><text x="13" y="161" class="tf">gender<tspan x="132" class="ty">varchar</tspan></text><text x="13" y="186" class="tf">hire_date<tspan x="132" class="ty">date</tspan></text></svg></g></g><text class="qdbd-link" x="10" y="20">www.quickdatabasediagrams.com</text></svg>